<?xml version="1.0" standalone="no"?>
<!DOCTYPE svg PUBLIC "-//W3C//DTD SVG 20010904//EN"
 "http://www.w3.org/TR/2001/REC-SVG-20010904/DTD/svg10.dtd">
<svg version="1.0" xmlns="http://www.w3.org/2000/svg"
 width="1024.000000pt" height="1024.000000pt" viewBox="0 0 1024.000000 1024.000000"
 preserveAspectRatio="xMidYMid meet">
<metadata>
Created by potrace 1.16, written by Peter Selinger 2001-2019
</metadata>
<g transform="translate(0.000000,1024.000000) scale(0.100000,-0.100000)"
fill="#000000" stroke="none">
<path d="M0 5120 l0 -5120 5120 0 5120 0 0 5120 0 5120 -5120 0 -5120 0 0
-5120z m3066 4106 c131 -28 213 -92 289 -227 l43 -74 78 -20 c173 -45 194 -86
95 -185 -41 -41 -56 -49 -102 -57 l-54 -8 -6 -130 c-5 -104 -12 -145 -33 -205
-30 -85 -95 -200 -138 -246 -23 -25 -29 -39 -26 -65 3 -32 8 -37 108 -86 57
-28 122 -54 145 -57 133 -21 215 -77 285 -195 22 -36 76 -145 121 -241 44 -96
105 -216 135 -267 30 -51 54 -96 54 -102 0 -6 -9 -15 -20 -21 -42 -22 -10 -85
87 -174 60 -55 132 -162 169 -251 9 -22 38 -85 66 -139 103 -206 177 -296 261
-318 36 -9 66 -27 104 -61 48 -45 62 -67 122 -197 6 -14 26 -49 45 -78 48 -77
63 -147 48 -235 -21 -120 -79 -201 -182 -254 -45 -23 -67 -28 -125 -27 -38 0
-82 3 -97 7 -16 4 -28 3 -28 -2 0 -9 176 -303 360 -601 79 -128 263 -430 336
-550 18 -30 68 -111 112 -180 l78 -125 36 3 c20 2 50 -4 67 -12 16 -9 33 -16
36 -16 10 0 -4 75 -38 200 -30 107 -32 126 -31 275 0 156 10 217 49 307 5 14
-4 23 -52 44 -32 15 -78 28 -103 29 -64 3 -128 38 -146 80 -16 40 -18 113 -4
135 9 13 12 13 20 -2 21 -36 62 -78 76 -78 10 0 12 8 8 29 -13 63 38 157 103
190 29 15 92 14 123 -2 60 -30 89 -128 55 -187 -18 -32 -18 -40 -1 -40 7 0 25
15 39 33 47 62 152 161 212 199 197 128 395 176 675 165 151 -6 167 -9 390
-52 144 -28 350 -39 369 -20 8 8 3 40 -14 109 -30 119 -31 130 -5 156 26 26
58 25 128 -4 42 -17 90 -27 179 -34 101 -8 132 -15 174 -36 l50 -27 63 25 c71
29 213 56 291 56 83 0 214 -27 297 -60 l76 -31 39 21 c54 28 124 26 245 -10
69 -21 122 -30 169 -30 62 0 70 -2 85 -25 20 -31 13 -55 -44 -145 -81 -129
-120 -160 -201 -160 -22 0 -42 -4 -46 -10 -9 -15 19 -72 67 -130 83 -101 104
-170 87 -285 -15 -111 -79 -209 -200 -307 -57 -47 -217 -127 -324 -162 -72
-24 -90 -36 -180 -117 -55 -50 -112 -97 -127 -105 -33 -17 -33 -25 -13 -149
22 -131 19 -249 -6 -304 -35 -78 -169 -229 -253 -285 -48 -32 -100 -35 -118
-6 -7 11 -23 20 -35 20 -36 0 -53 36 -53 117 0 85 9 112 55 166 19 22 35 49
35 60 0 10 -16 48 -36 83 -27 48 -41 64 -57 64 -43 0 -45 -10 -53 -177 l-7
-161 47 -134 c49 -143 54 -169 34 -186 -20 -16 -151 -35 -204 -30 -67 6 -120
33 -134 68 -7 17 -24 33 -40 39 -33 11 -35 16 -54 143 -13 86 -22 113 -86 240
-40 79 -74 144 -75 146 -2 2 -85 4 -185 4 l-183 2 -19 -39 c-27 -52 -21 -81
51 -235 65 -141 87 -201 78 -222 -3 -8 -35 -23 -73 -33 -57 -15 -78 -16 -135
-8 -76 12 -124 40 -133 77 -3 14 -15 27 -25 31 -12 3 -39 43 -66 98 -26 51
-73 130 -103 177 -61 91 -63 102 -48 220 8 65 8 66 -19 78 -26 12 -30 10 -74
-35 -42 -44 -74 -68 -153 -116 -23 -14 -26 -22 -25 -63 2 -40 -2 -49 -27 -69
-16 -13 -34 -38 -40 -57 -6 -18 -25 -41 -43 -53 -23 -14 -35 -32 -43 -64 -6
-25 -29 -82 -50 -127 -31 -64 -45 -83 -66 -88 -33 -9 -61 0 -74 24 -9 17 -12
17 -41 3 -68 -34 -106 23 -120 183 -8 93 -7 111 11 160 21 61 18 73 -23 112
l-24 23 -42 -48 c-22 -26 -56 -68 -74 -92 -46 -64 -98 -102 -146 -108 -37 -5
-41 -4 -41 16 0 12 -6 21 -16 21 -25 0 -12 29 24 51 31 20 32 20 32 2 0 -10
-5 -24 -12 -31 -6 -6 -9 -15 -5 -18 10 -10 67 56 67 78 0 16 -4 18 -17 12 -27
-12 -116 -11 -120 2 -2 7 17 17 43 23 49 13 70 31 164 142 45 54 45 54 44 127
-1 64 -6 79 -34 125 -18 29 -63 102 -100 162 -37 61 -98 160 -136 220 -138
223 -204 332 -246 403 -24 39 -73 120 -110 180 -36 59 -93 150 -125 202 -247
398 -293 501 -293 650 0 68 4 85 35 147 l35 70 -15 74 c-14 68 -19 78 -64 120
-26 25 -84 72 -127 104 -97 73 -284 258 -348 345 -27 36 -66 101 -88 145 -21
44 -43 84 -48 89 -11 11 -15 -5 -35 -174 -29 -238 -35 -359 -28 -620 8 -362
-24 -684 -92 -900 -37 -117 -61 -157 -107 -177 -22 -10 -38 -24 -38 -34 0 -39
71 -361 94 -427 9 -24 29 -97 46 -165 37 -148 82 -285 127 -392 42 -98 181
-308 261 -392 68 -73 73 -74 229 -44 205 41 258 37 318 -22 101 -99 67 -176
-147 -335 -87 -64 -196 -115 -291 -136 -17 -4 -31 -16 -37 -31 -13 -34 -43
-51 -135 -74 -122 -31 -184 -36 -226 -18 -33 14 -40 25 -84 128 -53 127 -56
131 -86 136 -28 4 -41 20 -90 117 -23 44 -90 164 -150 267 -60 103 -109 189
-109 192 0 3 -16 34 -36 69 -20 34 -77 144 -126 243 -50 99 -92 182 -95 185
-5 5 -44 -38 -115 -125 -22 -27 -66 -77 -97 -110 -32 -33 -96 -113 -144 -177
-48 -64 -92 -120 -97 -123 -5 -3 -14 -24 -20 -47 -6 -22 -25 -52 -41 -67 l-29
-27 25 -49 c34 -67 53 -88 95 -104 103 -41 148 -90 157 -176 8 -68 -13 -83
-137 -96 -155 -17 -337 0 -415 38 -42 21 -84 69 -112 131 -21 45 -27 51 -48
46 -28 -7 -88 43 -135 114 -24 36 -30 54 -26 79 5 35 72 156 119 216 27 34 28
40 17 67 -12 29 -10 32 42 88 29 32 71 92 93 133 44 84 235 390 348 556 86
126 124 198 156 292 l22 65 -26 63 -27 63 -54 0 c-125 0 -156 38 -172 208 -50
519 -40 830 37 1177 24 104 27 233 10 399 l-11 111 -53 2 c-51 3 -52 2 -68
-35 -9 -20 -22 -68 -28 -107 -21 -126 -56 -221 -148 -400 -50 -97 -93 -195
-96 -218 -5 -31 0 -61 19 -119 35 -102 33 -163 -4 -278 -24 -72 -29 -102 -24
-136 l6 -44 -53 -25 c-104 -48 -136 -36 -271 100 -111 111 -113 251 -9 478 40
87 41 90 51 259 5 94 17 217 25 273 23 152 79 345 125 429 l40 73 -24 28 -24
28 41 60 c90 129 113 168 195 327 153 300 238 400 364 430 29 7 97 28 151 47
53 18 117 33 141 33 43 0 45 1 62 45 12 34 15 63 12 117 l-6 72 -56 52 c-66
61 -96 122 -101 202 -2 31 -9 89 -16 127 -6 39 -9 106 -7 150 7 131 58 206
199 294 139 86 287 117 425 87z m4644 -6666 c0 -8 -16 -113 -35 -222 l-4 -28
89 0 c90 0 90 0 90 -26 0 -14 -7 -56 -16 -94 l-15 -69 -92 -3 -92 -3 -22 -140
c-12 -77 -25 -172 -29 -212 -6 -69 -6 -72 21 -99 26 -26 29 -27 112 -21 l85 6
-6 -37 c-3 -20 -6 -49 -6 -64 0 -25 -5 -27 -92 -48 -130 -31 -257 -30 -323 2
-80 38 -90 61 -88 186 1 59 13 177 27 261 13 85 23 159 20 163 -3 4 -25 8 -50
8 -50 0 -50 -1 -33 96 11 62 11 62 52 73 76 19 87 37 124 204 l18 77 132 0
c82 0 133 -4 133 -10z m-4794 -240 c60 -26 95 -76 101 -147 5 -56 1 -103 -32
-333 -25 -180 -19 -230 27 -230 13 0 18 -8 18 -27 -1 -74 -20 -87 -152 -99
-86 -9 -150 8 -183 48 -33 39 -33 116 0 322 33 206 33 238 -2 266 -38 30 -106
24 -156 -14 -43 -33 -87 -116 -87 -164 0 -38 -48 -409 -55 -429 -3 -10 -42
-13 -146 -13 l-142 0 7 93 c4 50 15 153 26 227 17 124 23 198 21 258 -3 66
-97 84 -169 32 -76 -55 -87 -87 -122 -353 -16 -131 -30 -242 -30 -247 0 -14
-287 -13 -295 0 -6 10 -1 60 50 485 13 110 27 228 30 263 4 34 8 62 8 62 1 0
69 3 151 7 l149 6 -5 -67 c-3 -36 -4 -66 -2 -66 2 0 28 19 57 43 76 62 146 90
242 95 59 3 90 -1 118 -12 41 -18 91 -66 113 -108 8 -16 17 -28 20 -28 3 0 27
19 52 41 86 76 218 123 312 111 19 -2 53 -12 76 -22z m1761 0 c29 -6 55 -16
59 -21 6 -11 -25 -160 -36 -172 -4 -5 -21 -2 -38 7 -50 26 -171 49 -225 42
-59 -6 -87 -28 -87 -67 0 -36 30 -59 139 -104 92 -38 170 -91 205 -138 28 -37
29 -155 3 -204 -83 -156 -314 -217 -604 -161 -99 19 -113 25 -113 42 0 20 31
178 36 185 2 2 18 -6 36 -17 44 -27 153 -68 206 -77 25 -4 63 -2 91 5 39 9 52
18 66 44 30 55 -5 91 -146 150 -86 36 -173 105 -200 158 -36 70 -11 186 53
245 31 29 116 78 153 88 83 23 285 21 402 -5z m-826 -13 c67 -32 91 -58 114
-120 16 -41 16 -55 6 -102 -31 -139 -200 -228 -458 -242 l-103 -6 0 -39 c0
-86 55 -144 147 -154 57 -7 210 26 261 56 18 11 36 20 39 20 3 0 3 -37 0 -82
-5 -56 -12 -87 -21 -94 -9 -6 -62 -22 -118 -35 -142 -33 -304 -33 -400 0 -80
27 -141 81 -178 156 -22 45 -25 62 -25 170 1 114 2 124 35 200 43 102 130 193
235 244 103 51 153 61 291 58 107 -2 126 -6 175 -30z m1770 22 c43 -15 97 -65
115 -106 23 -54 19 -113 -30 -413 -26 -158 -21 -192 29 -202 17 -3 19 -10 17
-43 -2 -22 -8 -45 -13 -52 -15 -17 -138 -36 -208 -31 -75 5 -110 29 -131 86
-13 39 -12 59 19 276 34 247 34 263 -9 286 -27 14 -96 12 -128 -4 -49 -26
-122 -121 -122 -158 0 -32 -59 -449 -65 -458 -3 -5 -66 -9 -140 -9 -118 -2
-136 0 -142 15 -3 9 16 194 43 410 l49 394 147 0 147 0 -6 -65 c-3 -36 -3 -65
0 -65 4 0 21 13 39 28 46 40 128 88 179 106 52 18 162 21 210 5z m1039 -28
c147 -32 141 -29 135 -65 -2 -17 -16 -113 -30 -212 -14 -100 -30 -206 -35
-234 -6 -29 -10 -77 -10 -106 0 -47 3 -56 26 -71 23 -15 25 -22 21 -56 -3 -22
-9 -43 -14 -48 -12 -12 -115 -29 -176 -29 -83 0 -167 62 -167 124 0 15 -6 13
-37 -16 -144 -129 -328 -142 -439 -31 -58 57 -77 114 -82 234 -5 121 11 202
55 277 33 57 133 157 183 182 52 27 157 61 215 71 76 12 249 3 355 -20z m1933
-19 c85 -42 137 -101 165 -187 36 -109 24 -242 -33 -361 -78 -162 -249 -254
-472 -254 -231 0 -375 119 -390 321 -10 139 32 269 115 360 101 110 241 161
433 156 108 -3 121 -5 182 -35z m-1466 -572 c67 -41 79 -104 31 -165 -25 -32
-111 -75 -151 -75 -32 0 -91 23 -112 44 -47 47 -14 151 58 184 82 38 126 42
174 12z"/>
<path d="M3220 8805 c-19 -7 -66 -29 -104 -50 -59 -33 -66 -40 -52 -50 35 -26
19 -40 -52 -42 -37 -1 -78 -3 -92 -5 -19 -2 -25 1 -24 14 1 13 -8 19 -35 23
-20 4 -48 9 -62 11 -23 4 -28 0 -43 -36 -9 -22 -19 -72 -22 -110 -10 -109 -43
-114 -80 -13 -20 55 -50 93 -74 93 -28 0 -53 -37 -53 -78 0 -87 65 -158 133
-147 l35 6 24 -63 c44 -115 172 -213 333 -255 95 -25 132 -12 185 64 61 90 96
183 114 308 14 99 11 103 -77 97 -41 -2 -74 -1 -74 2 0 37 62 72 110 62 22 -4
30 -2 30 9 0 16 -11 18 -72 15 -27 -1 -38 3 -38 12 0 24 23 38 62 38 44 0 47
10 18 57 -27 44 -48 53 -90 38z m-174 -191 c19 -9 34 -20 34 -24 0 -14 -70
-21 -127 -14 l-56 7 24 18 c22 17 43 24 77 28 8 0 29 -6 48 -15z m-405 -68 c7
-14 7 -35 2 -57 l-9 -34 -19 29 c-10 16 -20 46 -21 67 -2 35 0 38 18 28 10 -6
24 -20 29 -33z m599 -122 c0 -25 -18 -34 -63 -34 l-32 1 34 14 c28 13 32 19
27 38 -4 12 -9 45 -12 72 l-5 50 25 -60 c14 -33 26 -70 26 -81z m-166 -106
c27 -6 79 -8 114 -5 58 4 63 3 49 -10 -24 -24 -143 -20 -201 5 -43 20 -67 42
-29 27 10 -3 40 -11 67 -17z m126 -68 c0 -13 -70 -13 -90 0 -11 7 0 10 38 10
28 0 52 -4 52 -10z"/>
<path d="M2697 8210 c-5 -56 -14 -94 -32 -130 -28 -56 -27 -60 23 -104 20 -17
40 -36 46 -42 33 -31 145 -98 201 -119 129 -49 229 -40 257 21 11 23 9 33 -15
75 -15 27 -27 62 -27 77 0 27 -2 28 -73 39 -126 18 -269 106 -334 205 -20 32
-38 58 -38 58 -1 0 -5 -36 -8 -80z m408 -237 c-9 -20 -18 -39 -20 -42 -10 -9
-5 41 5 60 19 34 31 20 15 -18z"/>
<path d="M2580 8004 c0 -3 18 -43 39 -87 49 -103 84 -207 108 -319 l17 -88 56
-16 c203 -59 367 -77 550 -57 l62 6 -6 52 c-9 78 -52 218 -92 301 -48 97 -60
106 -67 53 -3 -22 -14 -50 -24 -61 -67 -76 -256 -59 -403 37 -74 48 -201 150
-213 171 -8 14 -27 20 -27 8z"/>
<path d="M2285 7956 c-119 -38 -194 -120 -300 -329 -95 -187 -144 -272 -206
-359 l-48 -67 52 -47 c70 -63 173 -129 255 -163 119 -49 107 -52 192 57 41 53
102 137 136 187 58 87 123 224 125 262 0 10 5 27 10 38 18 37 -1 -127 -22
-200 -12 -38 -44 -113 -72 -165 -95 -178 -92 -170 -92 -247 0 -39 4 -75 8 -79
11 -11 70 23 112 65 86 85 132 220 141 411 12 238 -62 503 -174 623 -28 30
-54 33 -117 13z"/>
<path d="M3450 7803 c0 -5 22 -64 49 -133 78 -197 118 -366 131 -553 4 -65 9
-120 12 -122 3 -3 48 17 101 44 69 35 113 51 157 56 33 4 60 9 60 11 0 3 -40
87 -89 187 -49 100 -99 207 -111 237 -29 73 -104 184 -145 216 -53 40 -165 78
-165 57z"/>
<path d="M1720 7033 c-71 -111 -122 -361 -150 -732 -8 -106 -15 -145 -34 -185
-32 -69 -74 -193 -81 -241 -3 -22 -2 -60 4 -85 5 -25 9 -34 10 -22 2 44 25 16
41 -48 19 -76 40 -92 40 -30 0 68 23 42 36 -40 11 -78 27 -100 72 -100 24 0
24 1 9 18 -22 24 -22 82 -1 153 41 137 77 140 44 3 -11 -43 -17 -87 -14 -96 6
-21 33 -24 38 -5 2 6 18 57 36 112 37 115 36 151 -5 276 -26 77 -26 79 -10
141 9 35 37 101 62 148 90 166 104 196 134 287 17 50 38 135 48 190 10 54 22
105 25 114 6 13 -4 23 -39 43 -26 14 -52 23 -58 19 -6 -4 -7 -1 -2 7 5 9 2 10
-14 5 -12 -4 -21 -2 -21 4 0 6 -6 11 -14 11 -7 0 -38 23 -67 50 -29 28 -55 50
-56 50 -2 0 -17 -21 -33 -47z"/>
<path d="M3833 7001 c-69 -23 -148 -79 -169 -118 -18 -31 -17 -32 18 -110 20
-43 49 -107 65 -143 56 -121 196 -274 408 -445 205 -164 190 -147 190 -215 0
-32 3 -61 6 -64 3 -4 19 0 35 9 16 8 39 15 52 15 26 0 26 -2 7 44 -21 50 -2
82 20 34 15 -32 73 -58 130 -58 35 0 46 3 35 10 -8 5 -11 12 -7 17 10 10 36
-7 59 -38 17 -22 18 -31 8 -74 -14 -62 1 -105 36 -105 19 0 24 7 30 38 4 20
13 54 21 74 18 46 13 69 -28 131 -36 54 -91 95 -164 121 -58 21 -123 80 -170
152 -18 27 -79 141 -135 253 -99 196 -105 205 -198 304 -53 56 -106 121 -116
145 -17 36 -23 42 -50 42 -17 -1 -54 -9 -83 -19z"/>
<path d="M4497 5893 c-12 -11 -7 -66 11 -128 15 -49 22 -61 42 -63 21 -4 22
-1 16 35 -4 21 -9 61 -13 88 -3 28 -10 56 -16 63 -10 13 -30 16 -40 5z"/>
<path d="M4587 5894 c-10 -11 -8 -73 4 -117 13 -49 41 -77 68 -70 25 6 27 20
4 45 -9 10 -19 44 -22 80 -5 53 -9 63 -26 66 -12 2 -24 0 -28 -4z"/>
<path d="M4426 5854 c-10 -25 -7 -104 4 -125 6 -10 20 -19 31 -19 17 0 20 5
16 23 -3 12 -9 48 -12 80 -7 56 -26 76 -39 41z"/>
<path d="M4341 5813 c-25 -31 -22 -37 13 -24 16 7 26 18 26 31 0 27 -15 25
-39 -7z"/>
<path d="M4814 5814 c-4 -14 -2 -35 4 -47 10 -22 10 -21 21 7 12 30 7 66 -9
66 -6 0 -13 -12 -16 -26z"/>
<path d="M4857 5759 c-10 -37 -8 -99 3 -99 27 0 39 74 17 105 -13 17 -14 17
-20 -6z"/>
<path d="M4314 5737 c-15 -13 -25 -31 -23 -41 4 -17 6 -16 32 4 15 12 32 30
37 41 15 27 -12 25 -46 -4z"/>
<path d="M4735 5690 c-42 -24 -62 -29 -125 -30 -88 -1 -156 4 -187 14 -21 7
-23 4 -23 -26 1 -48 31 -108 78 -150 86 -78 207 -77 275 2 52 61 74 163 45
203 -12 15 -17 14 -63 -13z"/>
<path d="M4306 5661 c-17 -18 -25 -85 -13 -98 8 -7 47 73 47 97 0 25 -12 26
-34 1z"/>
<path d="M4874 5638 c-12 -12 -24 -35 -28 -50 -5 -22 -3 -25 14 -21 29 8 42
28 38 63 l-3 32 -21 -24z"/>
<path d="M4328 5563 c-20 -35 -23 -80 -8 -103 14 -22 32 34 28 89 l-3 46 -17
-32z"/>
<path d="M4849 5539 c-19 -12 -41 -29 -47 -40 -11 -17 -9 -19 13 -19 29 0 75
40 75 65 0 19 2 19 -41 -6z"/>
<path d="M4355 5458 c-12 -64 14 -132 29 -75 10 37 7 72 -8 92 -13 19 -15 18
-21 -17z"/>
<path d="M4758 5443 c-45 -18 -48 -29 -11 -36 34 -6 93 24 93 47 0 11 -45 5
-82 -11z"/>
<path d="M4470 5426 c0 -25 32 -56 57 -56 21 0 15 15 -17 49 -36 37 -40 38
-40 7z"/>
<path d="M4550 5400 c0 -14 51 -50 71 -50 26 0 24 15 -3 32 -29 19 -68 29 -68
18z"/>
<path d="M4657 5401 c-17 -6 -17 -8 2 -25 18 -16 27 -17 63 -9 l43 9 -39 17
c-42 19 -43 19 -69 8z"/>
<path d="M4395 5359 c-7 -30 10 -89 26 -89 12 0 15 62 4 93 -12 35 -22 34 -30
-4z"/>
<path d="M7295 5360 c-4 -6 3 -41 14 -78 11 -38 23 -95 27 -127 22 -211 105
-297 268 -280 l61 6 -33 -30 c-27 -26 -40 -31 -82 -31 -116 0 -213 79 -245
200 l-11 45 -75 1 c-111 1 -203 12 -366 44 -296 57 -446 62 -643 21 -206 -43
-341 -116 -478 -261 -83 -87 -161 -240 -193 -377 -29 -127 -23 -315 14 -443
36 -123 37 -133 38 -209 1 -59 -3 -75 -26 -108 l-26 -38 51 -46 c64 -58 161
-109 210 -109 67 0 237 122 315 225 45 60 90 148 100 194 5 24 10 30 15 20 10
-18 -6 -119 -25 -166 -8 -20 -15 -40 -15 -44 0 -26 250 -118 395 -145 90 -17
386 -26 400 -12 4 3 2 15 -4 27 -27 50 -37 341 -12 341 5 0 11 -33 14 -72 10
-117 41 -207 142 -412 89 -182 124 -277 125 -336 1 -30 28 -94 29 -67 1 21 1
21 51 1 46 -18 88 -15 157 13 49 20 47 12 18 118 -35 124 4 440 68 558 21 38
33 52 36 41 3 -17 -15 -122 -26 -152 -5 -13 0 -14 38 -8 141 22 336 124 479
252 64 57 64 57 30 50 -19 -4 -53 -9 -75 -12 l-40 -4 50 19 c28 11 66 20 85
21 28 2 23 4 -30 15 -96 20 -226 82 -208 100 4 4 31 -1 60 -11 40 -14 84 -19
178 -19 117 0 132 2 230 35 262 87 419 207 469 357 42 124 21 212 -76 326 -50
57 -58 77 -103 233 -46 164 -202 268 -441 296 -133 15 -314 -12 -373 -55 -18
-13 -18 -15 -3 -38 10 -13 17 -31 17 -41 0 -21 -22 -36 -28 -18 -10 29 -80 94
-121 113 -30 13 -83 22 -163 28 -90 7 -134 15 -178 34 -66 28 -76 30 -85 15z
m107 -75 c26 -14 86 -34 134 -45 114 -27 157 -52 196 -114 27 -45 50 -126 35
-126 -26 0 -56 27 -61 54 -5 25 -9 28 -17 16 -8 -12 -9 -11 -4 6 11 42 -28 71
-150 109 -84 26 -126 45 -157 72 -71 58 -59 72 24 28z m706 -202 c2 -9 -7 -13
-27 -13 -17 0 -45 -9 -63 -20 -43 -26 -56 -25 -32 1 37 42 112 61 122 32z
m527 -24 c-3 -4 -12 -6 -20 -4 -8 3 -22 7 -31 10 -8 3 -13 9 -9 14 3 6 17 6
35 -1 17 -5 28 -14 25 -19z m-947 -45 c-11 -11 -25 -15 -43 -10 -36 9 -22 26
23 26 34 0 35 -1 20 -16z m970 -66 c16 -14 16 -58 -1 -58 -7 0 -18 5 -25 12
-9 9 -15 9 -23 1 -8 -8 1 -16 32 -30 104 -47 168 -157 156 -271 -10 -91 -47
-128 -146 -142 -75 -10 -76 -11 -105 -68 -30 -60 -50 -77 -104 -92 -128 -34
-293 60 -363 208 -24 50 -34 62 -47 57 -73 -30 -68 -3 8 43 30 17 58 32 63 32
5 0 6 -13 2 -29 -8 -36 12 -52 111 -87 84 -31 88 -30 64 9 -27 43 -25 101 4
163 31 67 81 115 158 154 l63 31 -47 -4 c-26 -2 -66 -14 -89 -25 -59 -29 -60
-20 -2 20 44 30 55 33 121 33 39 0 72 4 72 9 0 6 10 20 22 33 22 23 47 23 76
1z m-515 -39 c31 -34 37 -65 10 -54 -10 4 -34 12 -55 18 -33 10 -40 8 -71 -16
-20 -15 -40 -27 -46 -27 -20 0 -11 38 16 70 48 57 97 60 146 9z m-196 -85 c-3
-3 -12 -4 -19 -1 -8 3 -5 6 6 6 11 1 17 -2 13 -5z m-352 -401 c19 -65 40 -99
98 -160 23 -24 37 -46 33 -50 -10 -10 -102 90 -127 139 -19 37 -37 128 -26
128 3 0 13 -26 22 -57z m899 -195 c-46 -51 -152 -63 -229 -27 -51 24 -73 47
-34 35 106 -33 186 -30 241 8 37 25 50 16 22 -16z"/>
<path d="M8454 4816 c-125 -58 -184 -222 -104 -290 39 -32 77 -39 146 -27 32
6 83 11 113 11 103 0 148 48 138 147 -15 152 -150 225 -293 159z m37 -107 c13
-24 6 -83 -12 -105 -32 -39 -84 8 -73 65 7 31 36 61 61 61 7 0 17 -10 24 -21z
m179 11 c27 -15 36 -74 16 -105 -20 -30 -30 -31 -56 -5 -33 33 -23 120 13 120
4 0 17 -5 27 -10z"/>
<path d="M8211 4414 c13 -14 36 -32 50 -39 38 -20 116 -38 135 -31 38 15 -73
72 -175 90 l-35 6 25 -26z"/>
<path d="M4447 5264 c-4 -25 -1 -44 11 -62 l16 -25 8 31 c6 23 4 41 -7 62 -9
16 -17 30 -19 30 -2 0 -6 -16 -9 -36z"/>
<path d="M8582 5266 l-24 -13 41 -35 42 -35 137 -7 c89 -5 147 -4 165 3 21 8
27 8 27 -3 0 -36 -144 -81 -181 -57 -22 13 -109 27 -109 17 0 -3 12 -25 27
-49 15 -23 27 -53 27 -67 1 -21 7 -25 45 -32 51 -9 100 8 125 43 47 66 106
164 106 175 0 10 -17 14 -65 14 -46 0 -93 9 -157 30 -96 32 -168 38 -206 16z"/>
<path d="M4497 5183 c-3 -16 2 -44 10 -63 l16 -35 9 40 c6 28 5 47 -3 62 -16
30 -26 29 -32 -4z"/>
<path d="M4548 5102 c-5 -34 15 -92 32 -92 18 0 11 76 -9 101 l-18 23 -5 -32z"/>
<path d="M4610 5002 c0 -38 22 -102 35 -102 3 0 5 22 5 49 0 34 -6 56 -20 72
l-19 24 -1 -43z"/>
<path d="M5433 4995 c-35 -15 -58 -51 -68 -108 -14 -75 63 -173 144 -184 32
-4 38 -2 49 21 9 21 9 27 -1 30 -6 2 -31 9 -54 15 -89 24 -119 131 -49 176 53
35 97 -31 57 -85 -24 -33 -15 -46 17 -24 52 36 43 143 -13 164 -34 13 -43 12
-82 -5z"/>
<path d="M4667 4914 c-7 -43 19 -107 34 -83 13 21 11 57 -6 89 -9 17 -17 30
-19 30 -2 0 -6 -16 -9 -36z"/>
<path d="M5456 4894 c-4 -9 -4 -19 -2 -21 8 -8 26 8 26 23 0 19 -16 18 -24 -2z"/>
<path d="M4720 4807 c0 -31 6 -49 20 -62 20 -18 20 -17 20 24 0 44 -14 81 -30
81 -6 0 -10 -20 -10 -43z"/>
<path d="M5256 4788 c7 -19 47 -46 79 -54 40 -10 25 9 -31 40 -53 30 -55 30
-48 14z"/>
<path d="M4778 4725 c-4 -35 22 -102 35 -89 18 18 -3 124 -24 124 -4 0 -9 -16
-11 -35z"/>
<path d="M4836 4630 c-5 -29 -2 -47 10 -66 19 -28 34 -18 34 24 0 21 -25 82
-34 82 -2 0 -6 -18 -10 -40z"/>
<path d="M4890 4528 c0 -27 8 -52 20 -68 l20 -25 0 42 c0 43 -17 93 -32 93 -4
0 -8 -19 -8 -42z"/>
<path d="M3281 4474 c0 -11 3 -14 6 -6 3 7 2 16 -1 19 -3 4 -6 -2 -5 -13z"/>
<path d="M4950 4444 c0 -47 13 -84 30 -84 15 0 12 68 -5 100 -9 17 -18 30 -20
30 -3 0 -5 -21 -5 -46z"/>
<path d="M5006 4357 c-6 -33 13 -97 29 -97 11 0 4 98 -9 115 -12 17 -14 16
-20 -18z"/>
<path d="M5060 4262 c0 -45 14 -82 30 -82 18 0 10 74 -10 100 l-20 25 0 -43z"/>
<path d="M5115 4187 c-8 -41 22 -118 36 -95 15 22 10 66 -10 99 l-20 32 -6
-36z"/>
<path d="M5170 4085 c0 -20 8 -50 17 -68 l17 -32 7 34 c5 24 2 45 -9 68 -20
43 -32 42 -32 -2z"/>
<path d="M5230 3985 c0 -37 18 -85 32 -85 12 0 10 65 -4 95 -16 35 -28 31 -28
-10z"/>
<path d="M5285 3901 c-4 -18 -1 -39 6 -53 l13 -23 9 32 c7 23 6 37 -6 53 -15
22 -15 22 -22 -9z"/>
<path d="M5322 3835 c-13 -28 -2 -34 18 -10 9 11 10 19 3 26 -6 6 -13 1 -21
-16z"/>
<path d="M5420 3800 c0 -5 11 -12 25 -15 14 -3 36 -7 50 -10 30 -6 33 10 6 25
-25 13 -81 13 -81 0z"/>
<path d="M5360 3775 c-7 -9 -10 -18 -7 -21 9 -9 48 16 42 27 -9 13 -21 11 -35
-6z"/>
<path d="M5421 3726 c-9 -11 -9 -16 -1 -21 13 -8 60 13 60 27 0 14 -47 9 -59
-6z"/>
<path d="M7955 3694 c-54 -48 -144 -119 -187 -147 -26 -16 -27 -18 -13 -52 20
-47 19 -82 -5 -112 -24 -30 -25 -52 -6 -79 9 -12 11 -23 5 -30 -13 -15 65 -54
108 -54 26 0 40 12 93 76 71 85 89 126 89 199 1 48 -23 233 -31 240 -2 2 -26
-16 -53 -41z"/>
<path d="M5327 3710 c-6 -24 6 -26 27 -4 21 20 20 24 -3 24 -10 0 -21 -9 -24
-20z"/>
<path d="M5384 3666 c-3 -14 -3 -34 1 -43 6 -16 8 -16 26 6 23 28 21 54 -3 59
-12 2 -19 -5 -24 -22z"/>
<path d="M5477 3673 c-9 -15 1 -42 30 -76 l23 -29 0 31 c0 33 -42 91 -53 74z"/>
<path d="M5341 3634 c0 -11 3 -14 6 -6 3 7 2 16 -1 19 -3 4 -6 -2 -5 -13z"/>
<path d="M5550 3593 c0 -32 33 -83 54 -83 22 0 6 57 -25 86 l-29 28 0 -31z"/>
<path d="M5440 3566 c0 -31 10 -56 21 -56 10 0 12 40 3 64 -9 24 -24 19 -24
-8z"/>
<path d="M5312 3558 c5 -15 28 -18 29 -3 0 6 -7 12 -17 13 -10 3 -15 -1 -12
-10z"/>
<path d="M5272 3543 c-15 -27 -16 -73 -2 -73 19 0 34 48 23 72 l-10 23 -11
-22z"/>
<path d="M5627 3554 c-16 -16 32 -84 60 -84 11 0 11 5 -1 28 -17 32 -50 64
-59 56z"/>
<path d="M6268 3543 c-30 -8 -15 -54 50 -159 34 -54 69 -117 78 -140 l16 -41
85 -2 c71 -2 153 11 153 24 0 12 -83 181 -91 183 -5 2 -9 12 -9 21 0 12 -13
22 -42 31 -24 6 -79 30 -123 51 -79 39 -85 41 -117 32z"/>
<path d="M5495 3498 c7 -32 31 -68 45 -68 12 0 -2 64 -18 83 -23 27 -34 20
-27 -15z"/>
<path d="M5700 3515 c0 -33 59 -89 76 -72 9 8 -18 55 -35 61 -9 3 -22 9 -28
12 -7 3 -13 3 -13 -1z"/>
<path d="M5212 3460 c-14 -23 -19 -43 -15 -60 8 -35 8 -35 32 3 15 25 18 40
12 63 l-8 29 -21 -35z"/>
<path d="M5790 3484 c0 -37 64 -61 77 -28 7 20 -15 44 -25 27 -5 -8 -13 -9
-22 -3 -17 11 -30 13 -30 4z"/>
<path d="M5564 3443 c7 -30 40 -63 62 -63 28 0 -30 89 -60 90 -4 0 -5 -12 -2
-27z"/>
<path d="M5657 3388 c17 -29 64 -54 77 -41 11 12 -17 45 -49 59 -47 19 -49 18
-28 -18z"/>
<path d="M5483 3363 c-9 -25 -5 -32 38 -75 50 -49 84 -62 154 -56 36 3 40 6
43 33 3 29 0 31 -57 49 -34 10 -81 31 -106 47 -56 36 -61 36 -72 2z"/>
<path d="M5755 3359 c17 -32 38 -34 43 -4 4 19 -13 35 -41 35 -16 0 -16 -2 -2
-31z"/>
<path d="M7683 3283 c-13 -31 -21 -109 -11 -118 3 -3 20 3 37 13 27 16 29 21
15 26 -9 4 -19 4 -22 1 -3 -3 1 -5 9 -5 11 0 11 -2 -1 -10 -24 -16 -30 -12
-30 22 0 25 3 29 12 20 18 -18 31 -15 23 6 -4 9 -10 29 -14 45 l-6 27 -12 -27z"/>
<path d="M5485 3267 c-14 -52 10 -177 34 -177 4 0 29 18 54 40 25 22 48 40 52
40 4 0 5 -18 2 -40 -3 -22 -2 -42 2 -44 10 -7 61 74 61 96 0 13 -8 18 -31 18
-40 0 -157 57 -162 79 -3 11 -6 7 -12 -12z"/>
<path d="M6625 3185 c-16 -7 -56 -16 -87 -20 -48 -6 -58 -10 -58 -26 0 -36 41
-65 100 -72 30 -4 58 -3 62 1 5 5 2 27 -6 50 -8 23 -11 44 -6 47 4 3 25 -14
45 -37 l36 -43 -20 53 c-12 29 -21 55 -21 57 0 7 -12 5 -45 -10z"/>
<path d="M7770 3158 c-10 -21 -16 -38 -14 -38 13 0 61 30 77 48 17 19 17 20
-13 24 -28 4 -33 1 -50 -34z"/>
<path d="M7505 3096 c-29 -19 -101 -35 -146 -32 -43 3 -44 2 -29 -41 14 -38
57 -63 112 -63 l43 0 -3 50 c-3 39 -1 50 11 50 8 0 20 -13 27 -30 13 -30 37
-56 45 -48 7 6 -20 107 -32 119 -5 5 -17 4 -28 -5z"/>
<path d="M3559 2190 c-52 -27 -139 -167 -139 -223 0 -18 137 0 195 27 63 29
95 72 95 129 0 77 -72 109 -151 67z"/>
<path d="M6304 2150 c-83 -41 -140 -137 -154 -256 -19 -170 17 -247 116 -247
50 0 101 33 139 91 24 37 69 229 82 353 l6 56 -46 11 c-65 17 -96 15 -143 -8z"/>
<path d="M8279 2147 c-76 -51 -123 -174 -124 -327 0 -78 4 -101 20 -129 61
-103 174 -100 244 6 47 70 64 141 65 268 1 88 -3 117 -17 142 -34 64 -125 83
-188 40z"/>
</g>
</svg>
